<?xml version="1.0" encoding="UTF-8" standalone="no"?>
<!-- Created with Inkscape (http://www.inkscape.org/) -->

<svg width="100" height="100" viewBox="0 0 100 100" version="1.1" id="svg1" inkscape:version="1.3 (0e150ed6c4, 2023-07-21)" sodipodi:docname="circle.svg" xmlns:inkscape="http://www.inkscape.org/namespaces/inkscape" xmlns:sodipodi="http://sodipodi.sourceforge.net/DTD/sodipodi-0.dtd" xmlns="http://www.w3.org/2000/svg" xmlns:svg="http://www.w3.org/2000/svg">
  <sodipodi:namedview id="namedview1" pagecolor="#505050" bordercolor="#ffffff" borderopacity="1" inkscape:showpageshadow="0" inkscape:pageopacity="0" inkscape:pagecheckerboard="1" inkscape:deskcolor="#d1d1d1" inkscape:document-units="px" borderlayer="true" showborder="true" shape-rendering="auto" inkscape:zoom="3.4663806" inkscape:cx="45.436442" inkscape:cy="51.927363" inkscape:window-width="1362" inkscape:window-height="716" inkscape:window-x="0" inkscape:window-y="50" inkscape:window-maximized="1" inkscape:current-layer="layer1" />
  <defs id="defs1">
    <linearGradient id="swatch6" inkscape:swatch="solid">
      <stop style="stop-color:#000000;stop-opacity:1;" offset="0" id="stop6" />
    </linearGradient>
    <linearGradient id="swatch5" inkscape:swatch="solid">
      <stop style="stop-color:#000000;stop-opacity:1;" offset="0" id="stop5" />
    </linearGradient>
    <inkscape:path-effect effect="copy_rotate" starting_point="0,0" origin="90,50" id="path-effect5" is_visible="true" lpeversion="1.2" lpesatellites="" method="normal" num_copies="8" starting_angle="0" rotation_angle="45" gap="-0.01" copies_to_360="true" mirror_copies="false" split_items="false" link_styles="false" />
    <inkscape:path-effect effect="clone_original" linkeditem="" id="path-effect4" is_visible="true" lpeversion="1" method="d" attributes="" css_properties="" allow_transforms="true" />
    <inkscape:path-effect effect="offset" id="path-effect3" is_visible="true" lpeversion="1.2" linejoin_type="miter" unit="mm" offset="0" miter_limit="4" attempt_force_join="false" update_on_knot_move="true" />
    <inkscape:path-effect effect="offset" id="path-effect2" is_visible="true" lpeversion="1.2" linejoin_type="miter" unit="mm" offset="2.9" miter_limit="4" attempt_force_join="false" update_on_knot_move="true" />
  </defs>
  <g inkscape:label="Layer 1" inkscape:groupmode="layer" id="layer1">
    <ellipse style="display:none;fill:none;fill-opacity:1;fill-rule:evenodd;stroke:#000000;stroke-width:3.82372;stroke-opacity:1" id="path1" cx="50" cy="50" rx="39.335548" ry="39.650127" />
    <path id="ellipse2" style="display:inline;fill:none;fill-opacity:1;fill-rule:evenodd;stroke:#000000;stroke-width:1.8825;stroke-opacity:1" d="m 49.672877,50 c 0,10.780977 -8.670369,19.520686 -19.365811,19.520686 -10.695442,0 -19.365812,-8.739709 -19.365812,-19.520686 0,-10.780976 8.67037,-19.520686 19.365812,-19.520686 10.695442,0 19.365811,8.73971 19.365811,19.520686 z m 0.09581,0.231313 c 7.623302,7.623302 7.672333,19.934086 0.109513,27.496904 -7.562819,7.562821 -19.873603,7.51379 -27.496905,-0.109513 -7.623302,-7.6233 -7.672333,-19.934085 -0.109513,-27.496904 7.56282,-7.56282 19.873604,-7.513789 27.496905,0.109513 z m 0.231313,0.09581 c 10.780977,0 19.520686,8.670369 19.520686,19.365811 0,10.695438 -8.739709,19.365812 -19.520686,19.365812 -10.780976,0 -19.520685,-8.670374 -19.520685,-19.365812 0,-10.695442 8.739709,-19.365811 19.520685,-19.365811 z m 0.231313,-0.09581 c 7.623302,-7.623302 19.934085,-7.672333 27.496903,-0.109513 7.562821,7.562819 7.513791,19.873604 -0.109512,27.496904 -7.623301,7.623303 -19.934084,7.672334 -27.496903,0.109513 -7.56282,-7.562818 -7.51379,-19.873602 0.109512,-27.496904 z m 0.09581,-0.231313 c 0,-10.780976 8.670369,-19.520686 19.365811,-19.520686 10.69544,0 19.365812,8.73971 19.365812,19.520686 0,10.780977 -8.670372,19.520686 -19.365812,19.520686 -10.695442,0 -19.365811,-8.739709 -19.365811,-19.520686 z m -0.09581,-0.231313 c -7.623302,-7.623301 -7.672332,-19.934085 -0.109512,-27.496906 7.562819,-7.562819 19.873602,-7.513789 27.496903,0.109513 7.623303,7.623303 7.672333,19.934086 0.109512,27.496907 -7.562818,7.562819 -19.873601,7.513788 -27.496903,-0.109514 z m -0.231313,-0.09581 c -10.780976,0 -19.520685,-8.670369 -19.520685,-19.365812 0,-10.695442 8.739709,-19.365811 19.520685,-19.365811 10.780977,0 19.520686,8.670369 19.520686,19.365811 0,10.695443 -8.739709,19.365812 -19.520686,19.365812 z m -0.231313,0.09581 c -7.623301,7.623302 -19.934085,7.672333 -27.496905,0.109514 -7.56282,-7.562821 -7.513789,-19.873604 0.109513,-27.496907 7.623302,-7.623302 19.934086,-7.672332 27.496905,-0.109513 7.56282,7.562821 7.513789,19.873605 -0.109513,27.496906 z" />
  </g>
</svg>
