<?xml version="1.0" encoding="UTF-8" standalone="no"?>
<!-- Created with Inkscape (http://www.inkscape.org/) -->

<svg
   width="210mm"
   height="210mm"
   viewBox="0 0 210 210"
   version="1.1"
   id="svg2184"
   xml:space="preserve"
   inkscape:version="1.3.1 (91b66b0783, 2023-11-16, custom)"
   sodipodi:docname="img1.svg"
   xmlns:inkscape="http://www.inkscape.org/namespaces/inkscape"
   xmlns:sodipodi="http://sodipodi.sourceforge.net/DTD/sodipodi-0.dtd"
   xmlns="http://www.w3.org/2000/svg"
   xmlns:svg="http://www.w3.org/2000/svg"><sodipodi:namedview
     id="namedview2186"
     pagecolor="#505050"
     bordercolor="#ffffff"
     borderopacity="1"
     inkscape:showpageshadow="0"
     inkscape:pageopacity="0"
     inkscape:pagecheckerboard="1"
     inkscape:deskcolor="#505050"
     inkscape:document-units="mm"
     showgrid="false"
     inkscape:zoom="0.68271675"
     inkscape:cx="163.3181"
     inkscape:cy="619.58345"
     inkscape:window-width="1362"
     inkscape:window-height="716"
     inkscape:window-x="0"
     inkscape:window-y="50"
     inkscape:window-maximized="1"
     inkscape:current-layer="layer1" /><defs
     id="defs2181" /><g
     inkscape:label="Layer 1"
     inkscape:groupmode="layer"
     id="layer1"><path
       style="fill:none;fill-opacity:1;fill-rule:evenodd;stroke:#000000;stroke-width:1.81805;stroke-linecap:round;stroke-linejoin:round;stroke-dasharray:none"
       d="m 83.833727,165.91694 c 5.785405,-15.96176 4.505215,-15.98715 4.505215,-15.98715 0,0 -9.223439,3.23623 -9.581484,1.83397 -0.507276,-1.98672 7.198508,-11.75426 8.319347,-10.94063 -5.912693,-2.99398 -8.696713,-6.62102 -12.008257,-10.14131 l 19.618884,0.49194 c -9.740948,-0.79848 -18.54532,-4.18787 -27.485263,-7.20222 -3.686436,-1.05612 -12.752092,-0.9009 -15.050745,0.22536 -1.193917,0.585 2.267205,-17.95724 2.267205,-17.95724 -7.515607,-4.38819 -9.247085,-7.972976 -13.358216,-13.14949 6.834962,0.20454 11.808624,1.28846 18.114347,2.549514 l 0.788042,-5.134844 c -5.297799,-2.78243 -12.172995,-7.624966 -17.800863,-14.838915 -3.922555,-5.028032 -8.490452,-11.587873 -9.433071,-19.844291 -0.204659,-1.775689 1.442832,-4.843673 2.250727,-5.626191 5.752433,-5.57175 39.871052,-3.372366 54.967367,1.330427"
       id="path2371"
       sodipodi:nodetypes="ccsccccsccccscsc" /><path
       style="fill:none;fill-opacity:1;fill-rule:evenodd;stroke:#000000;stroke-width:1.81805;stroke-linecap:round;stroke-linejoin:round;stroke-dasharray:none"
       d="m 66.565433,102.34421 c -2.754792,-6.9443 2.098935,-21.307381 10.177928,-27.016306 2.33465,-1.649753 5.722176,-1.576682 8.61366,-0.941484 2.077643,0.456414 2.192311,1.563483 3.162281,2.345225"
       id="path2736"
       sodipodi:nodetypes="cscc" /><path
       style="fill:none;fill-opacity:1;fill-rule:evenodd;stroke:#000000;stroke-width:1.81805;stroke-linecap:round;stroke-linejoin:round;stroke-dasharray:none"
       d="m 118.0611,78.497428 c -0.12386,-0.922036 3.33593,-4.272741 4.54618,-4.605558 2.89292,-0.795549 4.49264,-0.675114 6.70781,0.05722 11.43765,4.355248 16.23021,15.66023 17.51066,28.13815"
       id="path2738"
       sodipodi:nodetypes="cscc" /><path
       style="fill:none;fill-opacity:1;fill-rule:evenodd;stroke:#000000;stroke-width:1.81805;stroke-linecap:round;stroke-linejoin:round;stroke-dasharray:none"
       d="m 106.51618,59.336751 c -7.146548,1.10185 -14.293098,1.006312 -21.439652,0.565444 -0.475402,-1.159017 16.742402,-8.349318 16.592752,-8.338957 -3.090758,0.213981 -10.123758,-12.565968 -8.100068,-14.889349 11.472148,-0.666528 19.397608,1.881993 26.557788,6.137589 4.23119,2.514778 7.88758,6.856887 10.49013,11.116969"
       id="path2740"
       sodipodi:nodetypes="ccscsc" /><path
       style="fill:none;fill-opacity:1;fill-rule:evenodd;stroke:#000000;stroke-width:1.81805;stroke-linecap:round;stroke-linejoin:round;stroke-dasharray:none"
       d="m 132.22363,54.417564 c 16.44354,-4.430598 38.71554,-10.859448 52.29751,-9.618848 1.70108,0.212984 3.83946,0.52018 4.33347,1.390351 0.31804,0.560215 -0.15292,2.438275 -0.58686,3.764908 -6.0514,18.500202 -18.61476,41.017385 -36.40879,42.576435 l 19.98418,-1.60183 c -4.41546,5.914144 -9.29567,11.28336 -15.93514,16.64338 4.61046,3.96466 9.25221,8.7144 11.25833,13.78484 -3.76824,0.69641 -7.80933,1.62448 -12.1664,1.22142 -1.50455,-0.13918 -5.21471,-2.01087 -10.30197,-1.27673 -1.95307,0.28184 -6.80755,6.0116 -8.48152,6.27857 -3.3165,0.52893 -9.94951,1.58675 -9.94951,1.58675 1.92045,0.87989 3.59446,1.79917 4.37545,2.86114 7.53245,10.17302 11.81322,21.4044 13.83547,33.37086"
       id="path2742"
       sodipodi:nodetypes="ccssccccsssccc" /><path
       style="fill:none;fill-opacity:1;fill-rule:evenodd;stroke:#000000;stroke-width:1.81805;stroke-linecap:round;stroke-linejoin:round;stroke-dasharray:none"
       d="m 86.914872,79.436056 c 4.25913,0.347678 4.49597,2.121693 5.41565,4.314339 1.05179,3.220835 0.79067,6.338985 0.56396,9.459825 -1.3418,5.006264 -1.40931,8.44591 -5.652457,10.18409 -2.752979,-0.2933 -5.291521,-3.747206 -6.364225,-6.141266 -0.903305,-2.713264 -0.816211,-5.310144 -0.346575,-7.899624 0.70157,-3.86832 1.844705,-8.633309 6.383647,-9.917364 z"
       id="path2798"
       sodipodi:nodetypes="cccccsc" /><path
       style="fill:none;fill-opacity:1;fill-rule:evenodd;stroke:#000000;stroke-width:1.81805;stroke-linecap:round;stroke-linejoin:round;stroke-dasharray:none"
       d="m 131.53126,88.06859 c 0,0 1.07208,5.59291 0.39356,9.178654 -1.44014,3.367636 -2.92633,5.262856 -4.92383,5.076156 -1.89936,-0.17753 -4.31536,-2.28939 -5.54,-4.843176 -0.85693,-3.789944 -1.10858,-9.969424 -0.62188,-12.090564 0.86642,-3.775929 2.31328,-5.396114 3.96595,-5.186186 3.97364,0.504748 5.84851,3.498832 6.7262,7.865116 z"
       id="path2800"
       sodipodi:nodetypes="ccscssc" /><path
       style="fill:none;fill-opacity:1;fill-rule:evenodd;stroke:#000000;stroke-width:1.81805;stroke-linecap:round;stroke-linejoin:round;stroke-dasharray:none"
       d="m 97.624032,115.27416 c 3.057408,5.41099 6.673458,11.67486 12.456318,13.78814 1.29839,0.40249 4.13853,0.0507 4.61686,-0.71261 2.28482,-3.92106 0.58492,-16.05522 0.58492,-16.05522"
       id="path2808"
       sodipodi:nodetypes="cccc" /><path
       style="fill:none;fill-opacity:1;fill-rule:evenodd;stroke:#000000;stroke-width:1.81805;stroke-linecap:round;stroke-linejoin:round;stroke-dasharray:none"
       d="m 93.630942,114.14067 c 1.13136,1.42446 2.36106,1.37579 3.99309,1.13349 0,0 1.66354,-0.93444 2.555828,-1.64144 2.22286,0.12674 6.58388,0.242 10.31036,-0.0311 2.06781,-1.65546 4.79191,-1.30719 4.79191,-1.30719 0,0 1.7205,-0.0365 2.4637,-0.41185 0.65451,-0.33061 1.57954,-1.53109 1.57954,-1.53109"
       id="path2810"
       sodipodi:nodetypes="ccccccc" /><path
       style="fill:none;fill-opacity:1;fill-rule:evenodd;stroke:#000000;stroke-width:1.81805;stroke-linecap:round;stroke-linejoin:round;stroke-dasharray:none"
       d="m 59.865532,111.09502 c 2.415069,-1.1217 4.90234,-1.32603 7.131854,-1.9007 0.636958,0.7541 -1.047799,2.97847 -0.476888,4.75438 1.107538,-0.28728 2.421438,-0.5836 2.889741,-1.0437"
       id="path2812"
       sodipodi:nodetypes="cccc" /><path
       style="fill:none;fill-opacity:1;fill-rule:evenodd;stroke:#000000;stroke-width:1.81805;stroke-linecap:round;stroke-linejoin:round;stroke-dasharray:none"
       d="m 134.63776,110.72046 c 1.38713,-1.55362 3.94784,-1.86145 5.38054,-2.33362 -0.64666,1.53849 -1.19119,4.73184 0.0481,4.13843 2.4692,-1.18229 5.62892,-3.79897 7.66835,-3.08277"
       id="path2814"
       sodipodi:nodetypes="ccsc" /><path
       id="path2848"
       style="fill:none;fill-rule:evenodd;stroke:#000000;stroke-width:1.04676;stroke-linecap:round;stroke-linejoin:round"
       d="m 105.3602,104.98176 a 3.9098418,0.94534535 0 0 1 -3.90985,0.94534 3.9098418,0.94534535 0 0 1 -3.909828,-0.94534 3.9098418,0.94534535 0 0 1 3.909828,-0.94535 3.9098418,0.94534535 0 0 1 3.90985,0.94535 z" /></g></svg>
