<?xml version="1.0" encoding="UTF-8" standalone="no"?>
<svg
   width="210mm"
   height="200mm"
   viewBox="0 0 210 200"
   version="1.1"
   id="svg11753"
   inkscape:version="1.2.2 (b0a8486541, 2022-12-01)"
   sodipodi:docname="example.svg"
   xmlns:inkscape="http://www.inkscape.org/namespaces/inkscape"
   xmlns:sodipodi="http://sodipodi.sourceforge.net/DTD/sodipodi-0.dtd"
   xmlns="http://www.w3.org/2000/svg"
   xmlns:svg="http://www.w3.org/2000/svg">
  <sodipodi:namedview
     id="namedview11755"
     pagecolor="#505050"
     bordercolor="#ffffff"
     borderopacity="1"
     inkscape:showpageshadow="0"
     inkscape:pageopacity="0"
     inkscape:pagecheckerboard="1"
     inkscape:deskcolor="#505050"
     inkscape:document-units="mm"
     showgrid="false"
     inkscape:zoom="0.5002822"
     inkscape:cx="458.74108"
     inkscape:cy="380.78508"
     inkscape:window-width="1362"
     inkscape:window-height="716"
     inkscape:window-x="0"
     inkscape:window-y="50"
     inkscape:window-maximized="1"
     inkscape:current-layer="layer1" />
  <defs
     id="defs11750" />
  <g
     inkscape:label="Layer 1"
     inkscape:groupmode="layer"
     id="layer1">
    <g
       aria-label="Svg2Gcode"
       id="text11928"
       style="font-size:37.8357px;font-family:Roboto;-inkscape-font-specification:Roboto;fill:none;fill-rule:evenodd;stroke:#020000;stroke-width:0.472948;stroke-linecap:round;stroke-linejoin:round"
       inkscape:label="Svg2Gcode">
      <path
         d="m 20.100601,98.2634 q -4.563193,-1.311687 -6.650807,-3.214557 -2.06914,-1.921344 -2.06914,-4.729463 0,-3.177607 2.531002,-5.246747 2.549476,-2.087615 6.613857,-2.087615 2.77117,0 4.932682,1.071519 2.179987,1.071519 3.362353,2.955914 1.20084,1.884396 1.20084,4.119806 h -3.565572 q 0,-2.438629 -1.551855,-3.824214 -1.551855,-1.404059 -4.378448,-1.404059 -2.623373,0 -4.10133,1.163891 -1.459483,1.145417 -1.459483,3.196082 0,1.644227 1.385585,2.789644 1.404059,1.126942 4.747937,2.06914 3.362352,0.942198 5.246747,2.087614 1.90287,1.126943 2.808119,2.641849 0.923723,1.514906 0.923723,3.565566 0,3.26998 -2.549476,5.24675 -2.549476,1.9583 -6.817077,1.9583 -2.771169,0 -5.17285,-1.05305 -2.40168,-1.07152 -3.713367,-2.91896 -1.293212,-1.84745 -1.293212,-4.19371 h 3.565571 q 0,2.43863 1.792023,3.86117 1.810498,1.40405 4.821835,1.40405 2.808119,0 4.30455,-1.14541 1.496432,-1.14542 1.496432,-3.12219 0,-1.97676 -1.385585,-3.04828 -1.385585,-1.089996 -5.025054,-2.14304 z"
         id="path11980" />
      <path
         d="m 40.681152,105.61624 4.951156,-15.352283 h 3.491674 l -7.168092,19.989373 h -2.604899 l -7.24199,-19.989373 h 3.491674 z"
         id="path11982" />
      <path
         d="m 51.59956,100.09237 q 0,-4.674038 2.161512,-7.426733 2.161513,-2.771169 5.727084,-2.771169 3.657944,0 5.708609,2.586425 l 0.16627,-2.216936 h 3.122185 v 19.509033 q 0,3.87964 -2.309308,6.11505 -2.290834,2.23541 -6.170471,2.23541 -2.161512,0 -4.230652,-0.92373 -2.06914,-0.92372 -3.159133,-2.531 l 1.773548,-2.05066 q 2.198461,2.71574 5.376069,2.71574 2.494053,0 3.879637,-1.40406 1.404059,-1.40405 1.404059,-3.95353 v -1.71813 q -2.050665,2.36474 -5.597762,2.36474 -3.510148,0 -5.690135,-2.8266 -2.161512,-2.82659 -2.161512,-7.70385 z m 3.43625,0.38797 q 0,3.38082 1.385585,5.32064 1.385585,1.92134 3.879637,1.92134 3.233031,0 4.747937,-2.93743 v -9.12639 q -1.570329,-2.863541 -4.710988,-2.863541 -2.494052,0 -3.898111,1.939818 -1.40406,1.939819 -1.40406,5.745563 z"
         id="path11984" />
      <path
         d="m 90.913217,110.25333 h -17.624638 v -2.45711 l 9.31113,-10.345697 q 2.06914,-2.346257 2.845067,-3.805739 0.794402,-1.477957 0.794402,-3.048287 0,-2.106088 -1.274738,-3.454724 -1.274738,-1.348636 -3.399301,-1.348636 -2.549476,0 -3.97201,1.459483 -1.404059,1.441008 -1.404059,4.027433 h -3.417776 q 0,-3.713368 2.383206,-6.004201 2.40168,-2.290834 6.410639,-2.290834 3.750316,0 5.930303,1.976768 2.179986,1.958293 2.179986,5.228273 0,3.97201 -5.062003,9.458925 l -7.20504,7.814696 h 13.504832 z"
         id="path11986" />
      <path
         d="m 115.28103,106.7247 q -1.36711,1.9583 -3.82421,2.93744 -2.43863,0.96068 -5.69014,0.96068 -3.28845,0 -5.837929,-1.53338 -2.549476,-1.55186 -3.953535,-4.39693 -1.385585,-2.84506 -1.422534,-6.59538 v -2.346257 q 0,-6.078099 2.826593,-9.421977 2.845065,-3.343878 7.980965,-3.343878 4.21218,0 6.78013,2.161513 2.56795,2.143037 3.14066,6.096573 h -3.5471 q -0.99762,-5.33912 -6.35521,-5.33912 -3.56557,0 -5.41302,2.512527 -1.828972,2.494052 -1.847446,7.241989 v 2.198461 q 0,4.526249 2.069136,7.205039 2.06914,2.66032 5.59777,2.66032 1.99524,0 3.49167,-0.44338 1.49643,-0.44339 2.47558,-1.49643 v -6.041153 h -6.2259 v -2.882017 h 9.75452 z"
         id="path11988" />
      <path
         d="m 128.67502,107.83317 q 1.82897,0 3.19608,-1.10847 1.36711,-1.10846 1.51491,-2.77117 h 3.23303 q -0.0924,1.71813 -1.18237,3.26998 -1.08999,1.55186 -2.91896,2.47558 -1.8105,0.92373 -3.84269,0.92373 -4.08286,0 -6.50301,-2.71575 -2.40168,-2.73422 -2.40168,-7.46368 v -0.572712 q 0,-2.918965 1.07152,-5.191324 1.07152,-2.272359 3.06676,-3.528623 2.01372,-1.256263 4.74794,-1.256263 3.36235,0 5.57928,2.013716 2.23541,2.013717 2.38321,5.228273 h -3.23303 q -0.1478,-1.939818 -1.47796,-3.177607 -1.31169,-1.256264 -3.2515,-1.256264 -2.6049,0 -4.04591,1.884395 -1.42253,1.865921 -1.42253,5.413018 v 0.646611 q 0,3.45472 1.42253,5.32064 1.42253,1.86592 4.06438,1.86592 z"
         id="path11990" />
      <path
         d="m 139.55648,100.0739 q 0,-2.937443 1.14542,-5.283699 1.16389,-2.346257 3.21455,-3.620995 2.06914,-1.274738 4.71099,-1.274738 4.08286,0 6.59539,2.826593 2.531,2.826593 2.531,7.519109 v 0.24017 q 0,2.91896 -1.12694,5.24674 -1.10847,2.30931 -3.19609,3.60252 -2.06914,1.29322 -4.76641,1.29322 -4.06438,0 -6.59538,-2.8266 -2.51253,-2.82659 -2.51253,-7.48215 z m 3.43625,0.40644 q 0,3.3254 1.53338,5.33912 1.55186,2.01371 4.13828,2.01371 2.6049,0 4.13828,-2.03219 1.53338,-2.05066 1.53338,-5.72708 0,-3.288457 -1.57033,-5.320648 -1.55185,-2.050666 -4.13828,-2.050666 -2.531,0 -4.08285,2.013717 -1.55186,2.013716 -1.55186,5.764037 z"
         id="path11992" />
      <path
         d="m 161.20855,100.09237 q 0,-4.60014 2.17999,-7.389784 2.17998,-2.808118 5.70861,-2.808118 3.51014,0 5.56081,2.40168 v -10.419597 h 3.41778 v 28.376779 h -3.14066 l -0.16627,-2.14304 q -2.05067,2.51253 -5.70861,2.51253 -3.4732,0 -5.67166,-2.84507 -2.17999,-2.84507 -2.17999,-7.42674 z m 3.41778,0.38797 q 0,3.3993 1.40405,5.32064 1.40406,1.92134 3.87964,1.92134 3.25151,0 4.74794,-2.91896 v -9.181809 q -1.53338,-2.826592 -4.71099,-2.826592 -2.51253,0 -3.91659,1.939818 -1.40405,1.939819 -1.40405,5.745563 z"
         id="path11994" />
      <path
         d="m 191.67295,110.62282 q -4.06438,0 -6.61386,-2.66033 -2.54948,-2.67879 -2.54948,-7.14961 v -0.62814 q 0,-2.974385 1.12695,-5.302167 1.14541,-2.346257 3.1776,-3.657944 2.05067,-1.330161 4.43387,-1.330161 3.89812,0 6.05963,2.56795 2.16151,2.567951 2.16151,7.352837 v 1.422535 h -13.54178 q 0.0739,2.95591 1.71812,4.78488 1.66271,1.8105 4.21218,1.8105 1.8105,0 3.06676,-0.73898 1.25627,-0.73898 2.19846,-1.95829 l 2.08762,1.62575 q -2.51253,3.86117 -7.53758,3.86117 z m -0.42492,-17.920234 q -2.06913,0 -3.47319,1.514906 -1.40406,1.496432 -1.7366,4.212178 h 10.01316 v -0.258643 q -0.1478,-2.604899 -1.40406,-4.027433 -1.25627,-1.441008 -3.39931,-1.441008 z"
         id="path11996" />
    </g>
  </g>
</svg>
